<?xml version="1.0" encoding="UTF-8"?>
<svg width="69px" height="77px" viewBox="0 0 69 77" version="1.1" xmlns="http://www.w3.org/2000/svg" xmlns:xlink="http://www.w3.org/1999/xlink">
    <!-- Generator: Sketch 47.1 (45422) - http://www.bohemiancoding.com/sketch -->
    <title>Shape</title>
    <desc>Created with Sketch.</desc>
    <defs>
        <path d="M1340.05257,674.760845 C1337.23876,671.99065 1334.02342,670.153995 1330.49927,668.937554 C1328.34076,668.165129 1326.11166,667.696251 1323.85883,667.54078 C1322.75749,667.460531 1319.25076,667.358584 1316.18759,667.947022 C1313.16307,668.587094 1310.03359,669.804385 1307.36206,671.586527 C1303.76838,673.871186 1300.36216,677.501115 1298.20319,681.572368 C1295.38206,686.772848 1294.45404,693.108269 1295.73494,699.086374 C1296.77223,704.052558 1299.92031,708.359993 1303.4404,711.670317 C1305.51201,713.798266 1309.87472,716.40536 1314.21105,717.706662 C1318.54737,719.007963 1321.67992,718.750831 1321.69834,718.802205 C1321.69834,719.802516 1321.55711,728.261655 1321.69834,728.400669 C1321.83957,728.539683 1333.6331,723.129586 1341.81126,712.198767 C1342.74567,710.920044 1343.70421,709.227471 1344.76638,707.513185 C1346.97765,703.503515 1348.22906,697.755109 1348.26009,693.00097 C1348.26245,690.891327 1347.72092,688.676573 1347.23211,686.646338 C1346.01626,681.759532 1343.41267,677.982805 1340.05257,674.760845 Z" id="path-1"></path>
        <filter x="-23.5%" y="-18.9%" width="147.1%" height="141.0%" filterUnits="objectBoundingBox" id="filter-3">
            <feOffset dx="0" dy="1" in="SourceAlpha" result="shadowOffsetOuter1"></feOffset>
            <feGaussianBlur stdDeviation="4" in="shadowOffsetOuter1" result="shadowBlurOuter1"></feGaussianBlur>
            <feColorMatrix values="0 0 0 0 0   0 0 0 0 0   0 0 0 0 0  0 0 0 0.2 0" type="matrix" in="shadowBlurOuter1"></feColorMatrix>
        </filter>
    </defs>
    <g id="Designs" stroke="none" stroke-width="1" fill="none" fill-rule="evenodd">
        <g id="001-Chat-Initial-Copy" transform="translate(-1287.000000, -660.000000)">
            <mask id="mask-2" fill="white">
                <use xlink:href="#path-1"></use>
            </mask>
            <g id="Shape" fill-rule="nonzero">
                <use fill="black" fill-opacity="1" filter="url(#filter-3)" xlink:href="#path-1"></use>
                <use fill="#FFFFFF" fill-rule="evenodd" xlink:href="#path-1"></use>
            </g>
        </g>
    </g>
</svg>